<?xml version="1.0" encoding="UTF-8" standalone="no"?>
<svg
   xmlns:dc="http://purl.org/dc/elements/1.1/"
   xmlns:cc="http://creativecommons.org/ns#"
   xmlns:rdf="http://www.w3.org/1999/02/22-rdf-syntax-ns#"
   xmlns:svg="http://www.w3.org/2000/svg"
   xmlns="http://www.w3.org/2000/svg"
   viewBox="0 0 498.89761 211.65359"
   height="211.65359"
   width="498.89761"
   xml:space="preserve"
   id="svg2"
   version="1.1"><metadata
     id="metadata8"><rdf:RDF><cc:Work
         rdf:about=""><dc:format>image/svg+xml</dc:format><dc:type
           rdf:resource="http://purl.org/dc/dcmitype/StillImage" /></cc:Work></rdf:RDF></metadata><defs
     id="defs6"><clipPath
       id="clipPath128"
       clipPathUnits="userSpaceOnUse"><path
         style="clip-rule:evenodd"
         id="path126"
         d="m 99.6151,45.2571 5.438,-31.1686 c 7.6927,1.9301 14.8867,5.5083 21.5677,10.7368 L 106.9333,48.926 c -2.3233,-1.6041 -4.7636,-2.825 -7.3182,-3.6689" /></clipPath><linearGradient
       id="linearGradient134"
       spreadMethod="pad"
       gradientUnits="userSpaceOnUse"
       y2="29.68"
       x2="127"
       y1="32.16"
       x1="98.559998"><stop
         id="stop130"
         offset="0"
         style="stop-opacity:1;stop-color:#ec0188" /><stop
         id="stop132"
         offset="1"
         style="stop-opacity:1;stop-color:#572689" /></linearGradient><clipPath
       id="clipPath144"
       clipPathUnits="userSpaceOnUse"><path
         style="clip-rule:evenodd"
         id="path142"
         d="m 73.5676,14.7923 c 3.7604,-1.0729 7.704,-1.7903 11.8235,-2.1467 4.1301,-0.3574 8.1403,-0.3288 12.0303,0.0899 l -5.4346,31.1491 c -1.3277,-0.0562 -2.6838,-0.0241 -4.0669,0.0952 -1.3838,0.1188 -2.7246,0.32 -4.0266,0.5998 z" /></clipPath><linearGradient
       id="linearGradient150"
       spreadMethod="pad"
       gradientUnits="userSpaceOnUse"
       y2="27.559999"
       x2="98.620003"
       y1="29.629999"
       x1="74.769997"><stop
         id="stop146"
         offset="0"
         style="stop-opacity:1;stop-color:#ec0188" /><stop
         id="stop148"
         offset="1"
         style="stop-opacity:1;stop-color:#572689" /></linearGradient><clipPath
       id="clipPath160"
       clipPathUnits="userSpaceOnUse"><path
         style="clip-rule:evenodd"
         id="path158"
         d="M 46.6971,31.7112 C 52.4475,25.4177 58.9691,20.658 66.2587,17.4348 l 10.3261,29.7944 c -2.3905,1.2671 -4.6041,2.889 -6.6425,4.8685 z" /></clipPath><linearGradient
       id="linearGradient166"
       spreadMethod="pad"
       gradientUnits="userSpaceOnUse"
       y2="34.110001"
       x2="75.529999"
       y1="36.59"
       x1="47.09"><stop
         id="stop162"
         offset="0"
         style="stop-opacity:1;stop-color:#ec0188" /><stop
         id="stop164"
         offset="1"
         style="stop-opacity:1;stop-color:#572689" /></linearGradient><clipPath
       id="clipPath176"
       clipPathUnits="userSpaceOnUse"><path
         style="clip-rule:evenodd"
         id="path174"
         d="M 51.1957,123.2921 C 38.4035,112.0731 31.3251,97.7967 29.9662,80.4912 28.6999,64.5364 32.6191,50.3232 41.6985,37.8354 l 23.2523,20.3925 c -3.7208,5.8328 -5.2903,12.3862 -4.7299,19.6574 0.6647,8.6542 4.1947,15.7853 10.59,21.395 6.3833,5.5985 13.7534,8.0261 22.1317,7.3049 7.0393,-0.6049 13.0247,-3.2893 17.9626,-8.0523 l 23.2662,20.4066 c -10.3906,11.3394 -23.3005,17.6649 -38.7133,18.9935 -1.906,0.163 -3.7908,0.2452 -5.6475,0.2452 -14.4215,0.003 -27.2959,-4.9567 -38.6149,-14.8861" /></clipPath><linearGradient
       id="linearGradient182"
       spreadMethod="pad"
       gradientUnits="userSpaceOnUse"
       y2="82.43"
       x2="131.3"
       y1="91.169998"
       x1="33.860001"><stop
         id="stop178"
         offset="0"
         style="stop-opacity:1;stop-color:#ec0188" /><stop
         id="stop180"
         offset="1"
         style="stop-opacity:1;stop-color:#572689" /></linearGradient><clipPath
       id="clipPath192"
       clipPathUnits="userSpaceOnUse"><path
         style="clip-rule:evenodd"
         id="path190"
         d="m 78.2147,88.6034 c -6.9341,-7.1411 -6.9704,-18.7538 -0.0785,-25.9385 6.8941,-7.1863 18.1,-7.2218 25.0355,-0.081 6.9359,7.1419 6.9696,18.752 0.076,25.9392 -3.46,3.6057 -8.0079,5.4111 -12.5558,5.4111 -4.5107,9e-4 -9.0224,-1.7742 -12.4772,-5.3308" /></clipPath><linearGradient
       id="linearGradient198"
       spreadMethod="pad"
       gradientUnits="userSpaceOnUse"
       y2="76.709999"
       x2="104.01"
       y1="79.370003"
       x1="77.389999"><stop
         id="stop194"
         offset="0"
         style="stop-opacity:1;stop-color:#ec0188" /><stop
         id="stop196"
         offset="1"
         style="stop-opacity:1;stop-color:#572689" /></linearGradient></defs><g
     transform="matrix(1.3333333,0,0,-1.3333333,0,211.6536)"
     id="g10"><g
       id="g12"><path
         id="path14"
         style="fill:none;fill-rule:evenodd;stroke:none"
         d="M 348.3711,6.4148 H 25.5756 c -13.919,0 -25.3072,11.3882 -25.3072,25.3074 v 95.2657 c 0,13.9189 11.3882,25.3074 25.3072,25.3074 h 322.7955 c 13.919,0 25.3072,-11.3885 25.3072,-25.3074 V 31.7222 c 0,-13.9192 -11.3882,-25.3074 -25.3072,-25.3074" /><path
         id="path16"
         style="fill:#ffffff;fill-opacity:1;fill-rule:nonzero;stroke:none"
         d="m 149.3646,101.8256 c 0.7305,0.2406 1.5653,-0.0961 1.8269,-0.7682 l 11.4239,-26.9187 h 3.026 l -16.0679,37.9548 -1.1489,2.736 -0.8867,-2.0639 -0.6267,-1.4873 -9.1803,-21.5459 h 11.2158 c 0.7821,0 1.4091,-0.6219 1.4091,-1.343 0,-0.7192 -0.627,-1.2949 -1.4091,-1.2949 h -12.3114 l -6.2589,-14.7328 c -0.21,-0.5275 -0.7322,-0.8634 -1.3053,-0.8634 -0.1574,0 -0.2608,0 -0.4179,0.0482 -0.7832,0.2415 -1.2002,1.0077 -0.8866,1.6798 l 0.8866,2.1583 4.9561,11.7099 1.0948,2.6379 12.3641,29.0798 c 0.1055,0.2387 0.2617,0.4311 0.4178,0.5284 0.1562,0.0963 0.26,0.1916 0.417,0.2389 0.3651,0.1443 0.783,0.0961 1.0965,-0.0473 0.3651,-0.1434 0.6259,-0.385 0.7293,-0.72 l 17.4759,-41.1248 1.8796,-4.4138 c 0.2606,-0.6704 -0.1046,-1.4394 -0.8359,-1.679 -0.1562,-0.0481 -0.3651,-0.0963 -0.5221,-0.0963 h -5.9984 c -0.366,0 -0.6775,0.1443 -0.94,0.3359 -0.2081,0.1434 -0.3642,0.337 -0.468,0.5757 -3.9124,9.2619 -7.8267,18.523 -11.7383,27.7367 -0.3135,0.6701 0.0519,1.4392 0.783,1.679" /><path
         id="path18"
         style="fill:#ffffff;fill-opacity:1;fill-rule:nonzero;stroke:none"
         d="m 192.6136,100.1466 c -3.9144,-9.2137 -7.8267,-18.4748 -11.7402,-27.7367 -0.1018,-0.2387 -0.2597,-0.4323 -0.4686,-0.5757 -0.2608,-0.1916 -0.5743,-0.3359 -0.9394,-0.3359 h -5.999 c -0.1553,0 -0.3662,0.0482 -0.5224,0.0963 -0.7294,0.2396 -1.0939,1.0086 -0.8331,1.679 l 1.8768,4.4164 17.4776,41.1222 c 0.1046,0.335 0.3642,0.5766 0.7305,0.72 0.3115,0.1443 0.7302,0.1916 1.0947,0.0473 0.1562,-0.0473 0.2605,-0.1426 0.417,-0.2389 0.157,-0.0973 0.3132,-0.2897 0.4178,-0.5284 l 12.365,-29.0798 1.0939,-2.6379 4.957,-11.7099 0.8875,-2.1583 c 0.3115,-0.6721 -0.1063,-1.4383 -0.8875,-1.6798 -0.1579,-0.0482 -0.2608,-0.0482 -0.4179,-0.0482 -0.5731,0 -1.0956,0.3359 -1.3036,0.8634 l -6.2598,14.7328 h -12.3122 c -0.7824,0 -1.4083,0.5757 -1.4083,1.2949 0,0.7211 0.6259,1.343 1.4083,1.343 h 11.2158 l -9.182,21.5459 -0.6259,1.4873 -0.8858,2.0639 -1.1483,-2.736 -16.0685,-37.9548 h 3.0257 l 11.4259,26.9187 c 0.2608,0.6721 1.0947,1.0088 1.8249,0.7682 0.7297,-0.2398 1.0965,-1.0089 0.7841,-1.679" /><path
         id="path20"
         style="fill:#ffffff;fill-opacity:1;fill-rule:nonzero;stroke:none"
         d="m 219.2085,79.3202 v -2.5909 -2.5906 h 2.816 v 2.5906 2.5909 12.3327 2.5906 2.5905 2.6408 10.9888 c 0,0.7183 0.6786,1.294 1.4615,1.294 0.7824,0 1.4083,-0.5757 1.4083,-1.294 v -8.3974 -2.5914 -2.6408 -2.5905 -2.5906 -2.6388 -9.6939 -2.5909 -2.5906 -1.3439 c 0,-0.72 -0.6259,-1.2965 -1.4083,-1.2965 h -5.6854 c -0.7841,0 -1.41,0.5765 -1.41,1.2965 v 2.638 2.5925 40.2582 c 0,0.7212 0.6259,1.296 1.41,1.296 h 20.6577 c 3.1295,0 5.9993,-0.9598 8.3458,-2.5897 1.0437,-0.7693 1.9828,-1.6328 2.766,-2.6408 0.6268,-0.8144 1.1472,-1.6798 1.6169,-2.5914 0.6786,-1.4882 1.0437,-3.1173 1.0437,-4.8461 0,-1.7263 -0.3651,-3.3579 -1.0437,-4.8453 -0.4697,-0.9136 -0.9901,-1.8252 -1.6169,-2.5914 -0.7832,-1.008 -1.7223,-1.8726 -2.766,-2.6408 -0.3654,-0.2386 -0.7305,-0.4793 -1.1466,-0.7191 -2.0866,-1.1993 -4.591,-1.8714 -7.1992,-1.8714 h -9.6517 c -0.7829,0 -1.4088,0.5757 -1.4088,1.2968 0,0.718 0.6259,1.2937 1.4088,1.2937 h 7.043 2.6087 c 2.8163,0 5.3725,1.008 7.3038,2.6408 0.8847,0.72 1.6687,1.6308 2.2419,2.5914 0.8875,1.4392 1.3569,3.0711 1.3569,4.8453 0,1.7288 -0.4694,3.407 -1.3569,4.8461 -0.5732,0.9598 -1.3572,1.8731 -2.2419,2.5914 -1.9313,1.6328 -4.4875,2.6408 -7.3038,2.6408 h -19.2498 z" /><path
         id="path22"
         style="fill:#ffffff;fill-opacity:1;fill-rule:nonzero;stroke:none"
         d="m 254.7031,101.8729 c 0,3.3596 1.0429,6.5268 2.8707,9.2129 1.5641,2.3998 3.7553,4.4155 6.364,5.904 2.92,1.6299 6.3644,2.5897 10.0681,2.5897 3.6516,0 7.0946,-0.9598 10.016,-2.5897 1.3053,-0.7693 2.5035,-1.6328 3.5481,-2.5917 1.0947,-1.0077 2.0338,-2.113 2.8698,-3.3123 1.7731,-2.6861 2.8168,-5.8533 2.8168,-9.2129 v -6.3326 -6.2881 c 0,-3.4069 -1.0437,-6.5741 -2.8168,-9.2602 -0.836,-1.1985 -1.7751,-2.3046 -2.8698,-3.3106 -0.8357,-0.7682 -1.8258,-1.4873 -2.8168,-2.1594 -0.2616,-0.1451 -0.4697,-0.2897 -0.7313,-0.3833 -2.9214,-1.6806 -6.3644,-2.6404 -10.016,-2.6404 -3.7037,0 -7.1481,0.9598 -10.0681,2.6404 -2.6087,1.4395 -4.7999,3.4552 -6.364,5.8533 -1.8278,2.6861 -2.8707,5.8533 -2.8707,9.2602 0,0.6727 0.6268,1.2974 1.4607,1.2974 h 1.41 2.8151 1.4099 c 0.7821,0 1.4607,-0.6247 1.4607,-1.2974 0,-5.4683 4.7991,-9.932 10.7464,-9.932 5.8947,0 10.7473,4.4637 10.7473,9.932 v 3.6964 c 0,0.72 0.6239,1.2949 1.4088,1.2949 0.7812,0 1.408,-0.5749 1.408,-1.2949 v -3.6964 c 0,-2.8777 -1.0446,-5.5165 -2.8168,-7.6286 -2.5055,-2.9747 -6.4171,-4.8943 -10.7473,-4.8943 -6.9911,0 -12.8338,4.9425 -13.5626,11.1799 h -2.8179 c 0.7304,-7.6765 7.825,-13.7705 16.3805,-13.7705 4.0694,0 7.8239,1.3904 10.7473,3.693 1.0437,0.8654 2.033,1.8244 2.8168,2.9293 1.7733,2.3981 2.8698,5.3258 2.8698,8.4912 v 4.9913 2.5905 5.0389 c 0,3.1198 -1.0965,6.0474 -2.8698,8.4456 -2.9733,4.0305 -7.9294,6.6713 -13.5641,6.6713 -9.0768,0 -16.4321,-6.8156 -16.4321,-15.1169 v -8.7185 c 0,-0.7192 -0.6787,-1.2957 -1.41,-1.2957 -0.8339,0 -1.4607,0.5765 -1.4607,1.2957 z" /><path
         id="path24"
         style="fill:#ffffff;fill-opacity:1;fill-rule:nonzero;stroke:none"
         d="m 315.6361,116.9898 c -5.6347,0 -10.5919,-2.6408 -13.5644,-6.6713 -1.7739,-2.3982 -2.8703,-5.3266 -2.8703,-8.4456 V 96.834 94.2435 89.2522 c 0,-3.1654 1.0964,-6.0931 2.8703,-8.4912 0.7821,-1.1049 1.7743,-2.0639 2.8163,-2.9293 2.9214,-2.3026 6.6767,-3.693 10.7481,-3.693 8.6071,0 15.6498,6.094 16.3794,13.7705 h -2.8162 c -0.7302,-6.2374 -6.5205,-11.1799 -13.5632,-11.1799 -4.3322,0 -8.2437,1.9196 -10.7481,4.8943 -1.7725,2.1121 -2.8163,4.75 -2.8163,7.6286 v 3.6955 c 0,0.7209 0.6259,1.2958 1.408,1.2958 0.7832,0 1.4083,-0.5749 1.4083,-1.2958 v -3.6955 c 0,-5.4683 4.8526,-9.932 10.7481,-9.932 5.9462,0 10.7972,4.4637 10.7972,9.932 0,0.6727 0.6258,1.2974 1.4091,1.2974 h 1.4088 2.8162 1.4607 c 0.7829,0 1.4088,-0.6247 1.4088,-1.2974 0,-3.4069 -1.0437,-6.5741 -2.8695,-9.2602 -1.5644,-2.3981 -3.7556,-4.4138 -6.3643,-5.8533 -2.9206,-1.6806 -6.3644,-2.6404 -10.067,-2.6404 -3.6536,0 -7.0965,0.9598 -10.0179,2.6404 -0.2617,0.0936 -0.4694,0.2382 -0.7302,0.3833 -0.9902,0.6721 -1.9296,1.3912 -2.8163,2.1594 -1.0964,1.0086 -2.0355,2.1121 -2.8703,3.3106 -1.7734,2.6861 -2.8162,5.8533 -2.8162,9.2602 v 6.2881 6.3326 c 0,3.3596 1.0428,6.5268 2.8162,9.2129 0.8348,1.1993 1.7739,2.3037 2.8703,3.3123 1.0438,0.9589 2.2431,1.8224 3.5465,2.5917 2.9214,1.6299 6.3643,2.5897 10.0179,2.5897 3.7026,0 7.1464,-0.9598 10.067,-2.5897 2.6087,-1.4885 4.7999,-3.5042 6.3643,-5.904 1.8258,-2.6861 2.8695,-5.8533 2.8695,-9.2129 0,-0.7203 -0.6259,-1.3422 -1.4088,-1.3422 -0.7824,0 -1.4607,0.6219 -1.4607,1.3422 0,8.3021 -7.3545,15.1169 -16.4313,15.1169" /><path
         id="path26"
         style="fill:#ffffff;fill-opacity:1;fill-rule:nonzero;stroke:none"
         d="m 130.3393,57.2522 c -0.3756,1.9916 -0.6752,3.4469 -0.8331,4.4424 h -0.0434 c -0.1208,-0.9589 -0.4394,-2.5231 -0.8096,-4.4424 z m -2.0047,-1.6194 -0.5,-2.619 h -1.8009 l 2.3267,10.4105 h 2.3352 l 2.3516,-10.4105 h -1.8879 l -0.5008,2.619 z" /><path
         id="path28"
         style="fill:#ffffff;fill-opacity:1;fill-rule:nonzero;stroke:none"
         d="m 135.4663,55.9278 c 0.0882,-0.8617 0.4221,-1.6219 1.3416,-1.6219 0.883,0 1.2121,0.5748 1.2121,1.3475 0,0.8564 -0.4059,1.3527 -1.6758,1.9817 -1.7212,0.8468 -2.393,1.5954 -2.393,3.1425 0,1.6682 1.0343,2.8097 2.8516,2.8097 2.2609,0 2.8185,-1.5845 2.8472,-2.9389 h -1.7629 c -0.057,0.5944 -0.2055,1.4703 -1.1154,1.4703 -0.7132,0 -1.0299,-0.4785 -1.0299,-1.1843 0,-0.7495 0.3201,-1.1007 1.4996,-1.6665 1.8017,-0.8654 2.6112,-1.703 2.6112,-3.4444 0,-1.6361 -0.9771,-2.988 -3.0982,-2.988 -2.3111,0 -3.0155,1.5327 -3.0785,3.0923 z" /><path
         id="path30"
         style="fill:#ffffff;fill-opacity:1;fill-rule:nonzero;stroke:none"
         d="m 142.4886,55.9278 c 0.0878,-0.8617 0.4212,-1.6219 1.3388,-1.6219 0.8858,0 1.2146,0.5748 1.2146,1.3475 0,0.8564 -0.4065,1.3527 -1.6764,1.9817 -1.7206,0.8468 -2.393,1.5954 -2.393,3.1425 0,1.6682 1.0341,2.8097 2.8522,2.8097 2.2609,0 2.8179,-1.5845 2.8471,-2.9389 h -1.7628 c -0.0587,0.5944 -0.2064,1.4703 -1.1155,1.4703 -0.7129,0 -1.0315,-0.4785 -1.0315,-1.1843 0,-0.7495 0.322,-1.1007 1.5004,-1.6665 1.8025,-0.8654 2.6115,-1.703 2.6115,-3.4444 0,-1.6361 -0.9765,-2.988 -3.0994,-2.988 -2.3102,0 -3.0137,1.5327 -3.0767,3.0923 z" /><path
         id="path32"
         style="fill:#ffffff;fill-opacity:1;fill-rule:nonzero;stroke:none"
         d="m 149.6591,58.3367 c 0,-2.4695 0.3625,-3.939 1.4167,-3.939 1.1084,0 1.4262,1.3598 1.4262,3.9345 0,2.4194 -0.3368,3.6796 -1.4298,3.6796 -1.0738,0 -1.4131,-1.3555 -1.4131,-3.6751 z m 4.6868,-0.0374 c 0,-3.8064 -0.9972,-5.4646 -3.3143,-5.4646 -2.1634,0 -3.2176,1.6324 -3.2176,5.4859 0,3.7553 1.2277,5.2696 3.2998,5.2696 2.1892,0 3.2321,-1.6764 3.2321,-5.2909" /><path
         id="path34"
         style="fill:#ffffff;fill-opacity:1;fill-rule:nonzero;stroke:none"
         d="m 161.6978,56.0446 c -0.0431,-0.5258 -0.2367,-3.2099 -3.0243,-3.2099 -2.8564,0 -3.1847,2.601 -3.1847,5.3969 0,3.3721 0.9542,5.3586 3.291,5.3586 2.6652,0 2.8713,-2.3689 2.9129,-3.2012 h -1.7784 c -0.0287,0.3529 -0.0536,1.6183 -1.1622,1.6183 -1.1282,0 -1.4046,-1.4321 -1.4046,-3.814 0,-1.9633 0.1891,-3.8055 1.3564,-3.8055 1.0712,0 1.1568,1.2566 1.2016,1.6568 z" /><path
         id="path36"
         style="fill:#ffffff;fill-opacity:1;fill-rule:nonzero;stroke:none"
         d="m 164.6209,53.0138 h -1.8017 v 10.4105 h 1.8017 z" /><path
         id="path38"
         style="fill:#ffffff;fill-opacity:1;fill-rule:nonzero;stroke:none"
         d="m 169.9027,57.2522 c -0.3747,1.9916 -0.6744,3.4469 -0.8331,4.4424 h -0.0431 c -0.1202,-0.9589 -0.4396,-2.5231 -0.809,-4.4424 z m -2.0038,-1.6194 -0.5006,-2.619 h -1.8009 l 2.3264,10.4105 h 2.3355 l 2.3525,-10.4105 h -1.8882 l -0.5014,2.619 z" /><path
         id="path40"
         style="fill:#ffffff;fill-opacity:1;fill-rule:nonzero;stroke:none"
         d="m 176.9973,53.0671 -0.2798,-0.5292 c 0.5326,-0.1882 1.061,-0.5312 1.061,-1.2807 0,-0.762 -0.4981,-1.3564 -1.584,-1.3564 -0.4689,0 -0.8918,0.0785 -1.2319,0.271 l 0.265,0.9927 c 0.2098,-0.1363 0.5437,-0.1738 0.7432,-0.1738 0.2676,0 0.4196,0.0873 0.4196,0.3022 0,0.286 -0.3867,0.4473 -0.9324,0.5355 v 0.4136 l 0.423,0.8251 z m 2.3516,2.9775 c -0.0431,-0.5258 -0.2356,-3.2099 -3.0232,-3.2099 -2.8567,0 -3.1847,2.601 -3.1847,5.3969 0,3.3721 0.9539,5.3586 3.2924,5.3586 2.6643,0 2.8698,-2.3689 2.9112,-3.2012 h -1.7801 c -0.0267,0.3529 -0.0502,1.6183 -1.1594,1.6183 -1.1293,0 -1.4054,-1.4321 -1.4054,-3.814 0,-1.9633 0.1891,-3.8055 1.3561,-3.8055 1.0715,0 1.1585,1.2566 1.2019,1.6568 z" /><path
         id="path42"
         style="fill:#ffffff;fill-opacity:1;fill-rule:nonzero;stroke:none"
         d="m 184.2146,57.2522 c -0.3765,1.9916 -0.6744,3.4469 -0.834,4.4424 h -0.0422 c -0.1211,-0.9589 -0.4397,-2.5231 -0.8107,-4.4424 z m -3.096,6.8726 v 0.4116 c 0,1.1364 0.568,1.4873 1.2276,1.4873 0.7728,0 1.5021,-0.54 1.9097,-0.54 0.1735,0 0.3342,0.0802 0.3342,0.4161 v 0.1401 h 1.1197 v -0.2914 c 0,-1.2736 -0.4983,-1.6515 -1.2588,-1.6515 -0.7572,0 -1.4494,0.525 -1.8672,0.525 -0.1831,0 -0.3325,-0.0961 -0.3325,-0.3251 v -0.1721 z m 1.0913,-8.492 -0.4998,-2.619 h -1.8017 l 2.3264,10.4105 h 2.3355 l 2.3533,-10.4105 h -1.8898 l -0.5006,2.619 z" /><path
         id="path44"
         style="fill:#ffffff;fill-opacity:1;fill-rule:nonzero;stroke:none"
         d="m 189.2976,58.3367 c 0,-2.4695 0.3617,-3.939 1.4159,-3.939 1.1084,0 1.4262,1.3598 1.4262,3.9345 0,2.4194 -0.3377,3.6796 -1.4298,3.6796 -1.0747,0 -1.4123,-1.3555 -1.4123,-3.6751 z m 4.686,-0.0374 c 0,-3.8064 -0.9972,-5.4646 -3.3143,-5.4646 -2.1634,0 -3.2173,1.6324 -3.2173,5.4859 0,3.7553 1.2274,5.2696 3.2995,5.2696 2.1901,0 3.2321,-1.6764 3.2321,-5.2909" /><path
         id="path46"
         style="fill:#ffffff;fill-opacity:1;fill-rule:nonzero;stroke:none"
         d="m 199.9672,54.5357 h 0.6441 c 1.4062,0 1.8887,1.0962 1.8887,3.8892 0,2.3927 -0.4297,3.4478 -1.876,3.4478 h -0.6568 z m -1.8147,8.8886 h 2.6175 c 2.5846,0 3.5878,-1.7172 3.5878,-4.9915 0,-3.5147 -0.9615,-5.419 -3.7267,-5.419 h -2.4786 z" /><path
         id="path48"
         style="fill:#ffffff;fill-opacity:1;fill-rule:nonzero;stroke:none"
         d="m 210.7534,57.6405 h -3.2253 v -3.0228 h 3.6215 l -0.2228,-1.6039 h -5.1746 v 10.4105 h 5.1531 v -1.6327 h -3.3772 v -2.5325 h 3.2253 z" /><path
         id="path50"
         style="fill:#ffffff;fill-opacity:1;fill-rule:nonzero;stroke:none"
         d="m 218.5515,57.2522 c -0.3748,1.9916 -0.6733,3.4469 -0.8314,4.4424 h -0.044 c -0.1216,-0.9589 -0.4393,-2.5231 -0.8098,-4.4424 z m -2.0038,-1.6194 -0.4998,-2.619 h -1.8017 l 2.3267,10.4105 h 2.3352 l 2.3533,-10.4105 h -1.889 l -0.5015,2.619 z" /><path
         id="path52"
         style="fill:#ffffff;fill-opacity:1;fill-rule:nonzero;stroke:none"
         d="m 223.9143,58.7421 h 0.8779 c 0.9998,0 1.4409,0.5133 1.4409,1.6112 0,1.0417 -0.5188,1.5613 -1.3442,1.5613 h -0.9746 z m -1.8017,4.6822 h 3.0235 c 1.6599,0 2.9032,-1.0301 2.9032,-3.0985 0,-2.0098 -1.1276,-3.0781 -3.0433,-3.0781 h -1.0817 v -4.2339 h -1.8017 z" /><path
         id="path54"
         style="fill:#ffffff;fill-opacity:1;fill-rule:nonzero;stroke:none"
         d="m 230.8363,58.3367 c 0,-2.4695 0.3608,-3.939 1.415,-3.939 1.1109,0 1.4261,1.3598 1.4261,3.9345 0,2.4194 -0.335,3.6796 -1.4286,3.6796 -1.0741,0 -1.4125,-1.3555 -1.4125,-3.6751 z m 4.6859,-0.0374 c 0,-3.8064 -0.9969,-5.4646 -3.3131,-5.4646 -2.1646,0 -3.2193,1.6324 -3.2193,5.4859 0,3.7553 1.2276,5.2696 3.3003,5.2696 2.1892,0 3.2321,-1.6764 3.2321,-5.2909" /><path
         id="path56"
         style="fill:#ffffff;fill-opacity:1;fill-rule:nonzero;stroke:none"
         d="m 238.7313,53.0138 h -1.8008 v 10.4105 h 1.8008 z" /><path
         id="path58"
         style="fill:#ffffff;fill-opacity:1;fill-rule:nonzero;stroke:none"
         d="m 241.9997,58.3367 c 0,-2.4695 0.36,-3.939 1.415,-3.939 1.1109,0 1.427,1.3598 1.427,3.9345 0,2.4194 -0.3359,3.6796 -1.4278,3.6796 -1.0749,0 -1.4142,-1.3555 -1.4142,-3.6751 z m 4.6876,-0.0374 c 0,-3.8064 -0.9995,-5.4646 -3.3148,-5.4646 -2.1646,0 -3.2193,1.6324 -3.2193,5.4859 0,3.7553 1.2285,5.2696 3.302,5.2696 2.1884,0 3.2321,-1.6764 3.2321,-5.2909" /><path
         id="path60"
         style="fill:#ffffff;fill-opacity:1;fill-rule:nonzero;stroke:none"
         d="m 254.3596,57.2522 c -0.3728,1.9916 -0.6741,3.4469 -0.8314,4.4424 h -0.0423 c -0.1233,-0.9589 -0.4402,-2.5231 -0.8115,-4.4424 z m -2.0027,-1.6194 -0.5,-2.619 h -1.8018 l 2.325,10.4105 h 2.3369 l 2.3516,-10.4105 h -1.887 l -0.5009,2.619 z" /><path
         id="path62"
         style="fill:#ffffff;fill-opacity:1;fill-rule:nonzero;stroke:none"
         d="m 259.4426,58.3367 c 0,-2.4695 0.3617,-3.939 1.416,-3.939 1.1111,0 1.4278,1.3598 1.4278,3.9345 0,2.4194 -0.3374,3.6796 -1.4287,3.6796 -1.0757,0 -1.4151,-1.3555 -1.4151,-3.6751 z m 4.688,-0.0374 c 0,-3.8064 -0.9972,-5.4646 -3.3143,-5.4646 -2.1634,0 -3.2176,1.6324 -3.2176,5.4859 0,3.7553 1.2277,5.2696 3.2995,5.2696 2.1887,0 3.2324,-1.6764 3.2324,-5.2909" /><path
         id="path64"
         style="fill:#ffffff;fill-opacity:1;fill-rule:nonzero;stroke:none"
         d="m 266.7764,55.9278 c 0.089,-0.8617 0.4233,-1.6219 1.3417,-1.6219 0.8841,0 1.2129,0.5748 1.2129,1.3475 0,0.8564 -0.4065,1.3527 -1.6755,1.9817 -1.7224,0.8468 -2.3933,1.5954 -2.3933,3.1425 0,1.6682 1.0343,2.8097 2.8516,2.8097 2.2609,0 2.8168,-1.5845 2.8471,-2.9389 h -1.7637 c -0.0578,0.5944 -0.2055,1.4703 -1.1146,1.4703 -0.7129,0 -1.0298,-0.4785 -1.0298,-1.1843 0,-0.7495 0.3203,-1.1007 1.4987,-1.6665 1.8034,-0.8654 2.6124,-1.703 2.6124,-3.4444 0,-1.6361 -0.9765,-2.988 -3.1011,-2.988 -2.3094,0 -3.0129,1.5327 -3.0767,3.0923 z" /><path
         id="path66"
         style="fill:#ffffff;fill-opacity:1;fill-rule:nonzero;stroke:none"
         d="m 279.7639,58.7421 h 0.8799 c 0.997,0 1.4383,0.5133 1.4383,1.6112 0,1.0417 -0.5182,1.5613 -1.3433,1.5613 h -0.9749 z m -1.8017,4.6822 h 3.0218 c 1.6608,0 2.9041,-1.0301 2.9041,-3.0985 0,-2.0098 -1.1265,-3.0781 -3.0433,-3.0781 h -1.0809 v -4.2339 h -1.8017 z" /><path
         id="path68"
         style="fill:#ffffff;fill-opacity:1;fill-rule:nonzero;stroke:none"
         d="m 287.9118,57.2522 c -0.3755,1.9916 -0.6757,3.4469 -0.8331,4.4424 h -0.043 c -0.1217,-0.9589 -0.4394,-2.5231 -0.8099,-4.4424 z m -2.0046,-1.6194 -0.4998,-2.619 h -1.8017 l 2.3267,10.4105 h 2.3352 l 2.3525,-10.4105 h -1.8882 l -0.5006,2.619 z" /><path
         id="path70"
         style="fill:#ffffff;fill-opacity:1;fill-rule:nonzero;stroke:none"
         d="m 297.3583,56.0446 c -0.0434,-0.5258 -0.2358,-3.2099 -3.0243,-3.2099 -2.8567,0 -3.1847,2.601 -3.1847,5.3969 0,3.3721 0.9538,5.3586 3.2927,5.3586 2.664,0 2.8712,-2.3689 2.9109,-3.2012 h -1.7793 c -0.0275,0.3529 -0.0524,1.6183 -1.1611,1.6183 -1.1282,0 -1.4037,-1.4321 -1.4037,-3.814 0,-1.9633 0.1891,-3.8055 1.3555,-3.8055 1.0713,0 1.1569,1.2566 1.2017,1.6568 z" /><path
         id="path72"
         style="fill:#ffffff;fill-opacity:1;fill-rule:nonzero;stroke:none"
         d="m 300.2822,53.0138 h -1.8025 v 10.4105 h 1.8025 z" /><path
         id="path74"
         style="fill:#ffffff;fill-opacity:1;fill-rule:nonzero;stroke:none"
         d="m 307.0573,57.6405 h -3.2244 v -3.0228 h 3.6216 l -0.2228,-1.6039 h -5.1747 v 10.4105 h 5.1523 v -1.6327 h -3.3764 v -2.5325 h 3.2244 z" /><path
         id="path76"
         style="fill:#ffffff;fill-opacity:1;fill-rule:nonzero;stroke:none"
         d="m 308.5449,53.0138 v 10.4105 h 2.0433 c 2.0772,-5.7534 2.4769,-6.8513 2.5979,-7.3618 h 0.0153 c -0.087,1.2512 -0.0913,2.783 -0.0913,4.4895 v 2.8723 h 1.6081 V 53.0138 h -1.9596 c -2.1452,6.1328 -2.5259,7.238 -2.6555,7.7165 h -0.0155 c 0.0751,-1.2832 0.0759,-2.8151 0.0759,-4.6823 v -3.0342 z" /><path
         id="path78"
         style="fill:#ffffff;fill-opacity:1;fill-rule:nonzero;stroke:none"
         d="m 317.8244,61.7916 h -2.1469 v 1.6327 h 6.0967 v -1.6327 h -2.1481 v -8.7778 h -1.8017 z" /><path
         id="path80"
         style="fill:#ffffff;fill-opacity:1;fill-rule:nonzero;stroke:none"
         d="m 327.7525,57.6405 h -3.2253 v -3.0228 h 3.6199 l -0.2211,-1.6039 h -5.1747 v 10.4105 h 5.1531 v -1.6327 h -3.3772 v -2.5325 h 3.2253 z" /><path
         id="path82"
         style="fill:#ffffff;fill-opacity:1;fill-rule:nonzero;stroke:none"
         d="m 330.6878,55.9278 c 0.087,-0.8617 0.4221,-1.6219 1.3408,-1.6219 0.8838,0 1.2129,0.5748 1.2129,1.3475 0,0.8564 -0.4051,1.3527 -1.6767,1.9817 -1.7198,0.8468 -2.3947,1.5954 -2.3947,3.1425 0,1.6682 1.0366,2.8097 2.8539,2.8097 2.2612,0 2.818,-1.5845 2.8474,-2.9389 h -1.7628 c -0.0581,0.5944 -0.2072,1.4703 -1.1155,1.4703 -0.7123,0 -1.0309,-0.4785 -1.0309,-1.1843 0,-0.7495 0.3211,-1.1007 1.4995,-1.6665 1.8028,-0.8654 2.6116,-1.703 2.6116,-3.4444 0,-1.6361 -0.9771,-2.988 -3.1,-2.988 -2.3094,0 -3.0138,1.5327 -3.077,3.0923 z" /><path
         id="path84"
         style="fill:#ffffff;fill-opacity:1;fill-rule:nonzero;stroke:none"
         d="m 128.3397,39.8778 c 0,-2.4712 0.3617,-3.9387 1.4159,-3.9387 1.1109,0 1.4278,1.3597 1.4278,3.9353 0,2.4185 -0.3367,3.6785 -1.4286,3.6785 -1.0749,0 -1.4151,-1.3552 -1.4151,-3.6751 z m 4.6885,-0.0391 c 0,-3.8072 -0.9978,-5.4638 -3.3148,-5.4638 -2.1628,0 -3.2176,1.6328 -3.2176,5.4862 0,3.7562 1.2277,5.2684 3.3004,5.2684 2.1883,0 3.232,-1.6764 3.232,-5.2908" /><path
         id="path86"
         style="fill:#ffffff;fill-opacity:1;fill-rule:nonzero;stroke:none"
         d="m 134.4339,34.5532 v 10.4105 h 2.0441 c 2.0772,-5.7523 2.476,-6.8513 2.596,-7.3601 h 0.0155 c -0.0844,1.2503 -0.0898,2.7822 -0.0898,4.4898 v 2.8703 h 1.6084 V 34.5532 h -1.9605 c -2.1452,6.1339 -2.5251,7.2397 -2.6546,7.7185 h -0.0148 c 0.0735,-1.2833 0.0743,-2.8171 0.0743,-4.6806 v -3.0379 z" /><path
         id="path88"
         style="fill:#ffffff;fill-opacity:1;fill-rule:nonzero;stroke:none"
         d="m 148.2035,37.584 c -0.0448,-0.525 -0.2364,-3.2091 -3.0243,-3.2091 -2.8565,0 -3.1856,2.6005 -3.1856,5.3969 0,3.3721 0.9542,5.3577 3.2936,5.3577 2.6634,0 2.8715,-2.3669 2.912,-3.2011 h -1.7793 c -0.0277,0.3549 -0.0518,1.6203 -1.1602,1.6203 -1.1302,0 -1.4046,-1.4332 -1.4046,-3.8152 0,-1.9624 0.1883,-3.8052 1.3536,-3.8052 1.0715,0 1.1594,1.2566 1.2044,1.6557 z" /><path
         id="path90"
         style="fill:#ffffff;fill-opacity:1;fill-rule:nonzero;stroke:none"
         d="m 150.9506,39.8778 c 0,-2.4712 0.3617,-3.9387 1.4159,-3.9387 1.1092,0 1.4261,1.3597 1.4261,3.9353 0,2.4185 -0.3359,3.6785 -1.4278,3.6785 -1.0741,0 -1.4142,-1.3552 -1.4142,-3.6751 z m 4.6885,-0.0391 c 0,-3.8072 -0.9995,-5.4638 -3.3152,-5.4638 -2.1642,0 -3.219,1.6328 -3.219,5.4862 0,3.7562 1.2274,5.2684 3.3004,5.2684 2.19,0 3.2338,-1.6764 3.2338,-5.2908" /><path
         id="path92"
         style="fill:#ffffff;fill-opacity:1;fill-rule:nonzero;stroke:none"
         d="m 157.0445,44.9646 h 1.8017 V 36.144 h 3.437 l -0.1726,-1.5908 h -5.0661 z" /><path
         id="path94"
         style="fill:#ffffff;fill-opacity:1;fill-rule:nonzero;stroke:none"
         d="m 168.5965,47.6552 -2.0874,-1.8538 h -1.6966 l 1.6404,1.8538 z m -4.1802,-7.7783 c 0,-2.4703 0.3617,-3.9378 1.415,-3.9378 1.1112,0 1.427,1.3597 1.427,3.9353 0,2.4185 -0.3357,3.6785 -1.4287,3.6785 -1.074,0 -1.4133,-1.3552 -1.4133,-3.676 z m 4.6879,-0.0382 c 0,-3.8061 -0.9998,-5.4638 -3.3151,-5.4638 -2.1626,0 -3.2176,1.6328 -3.2176,5.4862 0,3.7562 1.2285,5.2701 3.2986,5.2701 2.1904,0 3.2341,-1.6781 3.2341,-5.2925" /><path
         id="path96"
         style="fill:#ffffff;fill-opacity:1;fill-rule:nonzero;stroke:none"
         d="m 176.5553,34.5532 h -1.3711 c -0.0422,0.3189 -0.0706,0.5516 -0.0853,0.8875 -0.4482,-0.8234 -1.1458,-1.0658 -1.9942,-1.0658 -2.0996,0 -2.8576,1.9366 -2.8576,5.3186 0,3.8007 1.2371,5.436 3.3945,5.436 2.7238,0 2.8732,-2.4176 2.9033,-3.0353 h -1.7768 c -0.0309,0.4198 -0.1182,1.4587 -1.1792,1.4587 -1.1594,0 -1.4831,-1.6004 -1.4831,-3.8568 0,-2.4259 0.2764,-3.757 1.421,-3.757 0.9547,0 1.243,0.7574 1.243,2.2901 v 0.5836 h -1.3527 v 1.5917 h 3.1382 z" /><path
         id="path98"
         style="fill:#ffffff;fill-opacity:1;fill-rule:nonzero;stroke:none"
         d="m 179.9127,34.5532 h -1.8026 v 10.4105 h 1.8026 z" /><path
         id="path100"
         style="fill:#ffffff;fill-opacity:1;fill-rule:nonzero;stroke:none"
         d="m 187.545,37.584 c -0.0448,-0.525 -0.2356,-3.2091 -3.024,-3.2091 -2.8576,0 -3.1864,2.6005 -3.1864,5.3969 0,3.3721 0.9547,5.3577 3.2935,5.3577 2.6649,0 2.8712,-2.3669 2.9118,-3.2011 h -1.7793 c -0.0267,0.3549 -0.0525,1.6203 -1.1603,1.6203 -1.129,0 -1.4037,-1.4332 -1.4037,-3.8152 0,-1.9624 0.1874,-3.8052 1.3536,-3.8052 1.0723,0 1.1579,1.2566 1.2036,1.6557 z" /><path
         id="path102"
         style="fill:#ffffff;fill-opacity:1;fill-rule:nonzero;stroke:none"
         d="m 190.2912,39.8778 c 0,-2.4712 0.3617,-3.9387 1.415,-3.9387 1.1121,0 1.4287,1.3597 1.4287,3.9353 0,2.4185 -0.3373,3.6785 -1.4287,3.6785 -1.0757,0 -1.415,-1.3552 -1.415,-3.6751 z m 4.6888,-0.0391 c 0,-3.8072 -0.999,-5.4638 -3.3151,-5.4638 -2.1626,0 -3.2185,1.6328 -3.2185,5.4862 0,3.7562 1.2277,5.2684 3.3004,5.2684 2.1895,0 3.2332,-1.6764 3.2332,-5.2908" /><path
         id="path104"
         style="fill:#ffffff;fill-opacity:1;fill-rule:nonzero;stroke:none"
         d="m 197.6258,37.4692 c 0.0865,-0.862 0.4204,-1.622 1.3408,-1.622 0.8841,0 1.2138,0.5729 1.2138,1.3473 0,0.8564 -0.4065,1.353 -1.6764,1.9812 -1.7215,0.8475 -2.395,1.5961 -2.395,3.1422 0,1.6693 1.0361,2.8099 2.8542,2.8099 2.2592,0 2.8177,-1.5845 2.8454,-2.9392 h -1.7637 c -0.057,0.5944 -0.2046,1.4695 -1.1146,1.4695 -0.7132,0 -1.0306,-0.4765 -1.0306,-1.1835 0,-0.7495 0.3228,-1.1012 1.5003,-1.6673 1.8034,-0.8643 2.6124,-1.7011 2.6124,-3.4444 0,-1.6353 -0.9773,-2.9872 -3.1011,-2.9872 -2.3085,0 -3.0138,1.5339 -3.0758,3.0935 z" /><path
         id="path106"
         style="fill:#ffffff;fill-opacity:1;fill-rule:nonzero;stroke:none"
         d="m 207.8654,36.0771 h 0.6423 c 1.4074,0 1.8908,1.0962 1.8908,3.888 0,2.3939 -0.4309,3.4498 -1.8752,3.4498 h -0.6579 z m -1.8153,8.8875 h 2.6175 c 2.5847,0 3.5878,-1.7164 3.5878,-4.9913 0,-3.5158 -0.9609,-5.4201 -3.727,-5.4201 h -2.4783 z" /><path
         id="path108"
         style="fill:#ffffff;fill-opacity:1;fill-rule:nonzero;stroke:none"
         d="m 218.6507,39.1819 h -3.2244 V 36.159 h 3.6215 l -0.2225,-1.6058 h -5.1747 v 10.4114 h 5.152 v -1.6317 h -3.3763 v -2.5327 h 3.2244 z" /><path
         id="path110"
         style="fill:#ffffff;fill-opacity:1;fill-rule:nonzero;stroke:none"
         d="m 228.8163,37.584 c -0.0451,-0.525 -0.2384,-3.2091 -3.0243,-3.2091 -2.8585,0 -3.1864,2.6005 -3.1864,5.3969 0,3.3721 0.9547,5.3577 3.2927,5.3577 2.664,0 2.8712,-2.3669 2.9126,-3.2011 h -1.7802 c -0.0266,0.3549 -0.0516,1.6203 -1.1602,1.6203 -1.1299,0 -1.4037,-1.4332 -1.4037,-3.8152 0,-1.9624 0.1891,-3.8052 1.3538,-3.8052 1.0729,0 1.1585,1.2566 1.2033,1.6557 z" /><path
         id="path112"
         style="fill:#ffffff;fill-opacity:1;fill-rule:nonzero;stroke:none"
         d="m 231.7402,44.9646 v -7.1615 c 0,-0.8543 0.2038,-1.866 1.3105,-1.866 1.0706,0 1.3002,0.8529 1.3002,1.8535 v 7.174 h 1.8017 v -7.2032 c 0,-1.8705 -0.7044,-3.3874 -3.1323,-3.3874 -2.3879,0 -3.0843,1.4287 -3.0843,3.3883 v 7.2023 z" /><path
         id="path114"
         style="fill:#ffffff;fill-opacity:1;fill-rule:nonzero;stroke:none"
         d="m 239.5332,34.5532 h -1.8025 v 10.4105 h 1.8025 z" /><path
         id="path116"
         style="fill:#ffffff;fill-opacity:1;fill-rule:nonzero;stroke:none"
         d="m 244.8142,38.7916 c -0.3756,1.9936 -0.6744,3.4489 -0.8314,4.4433 h -0.0451 c -0.1216,-0.9579 -0.4394,-2.5229 -0.8104,-4.4433 z m -2.0047,-1.6183 -0.498,-2.6201 h -1.8037 l 2.3267,10.4105 h 2.3351 l 2.3536,-10.4105 h -1.889 l -0.5017,2.6201 z" /><path
         id="path118"
         style="fill:#ffffff;fill-opacity:1;fill-rule:nonzero;stroke:none"
         d="m 250.1235,36.0077 h 1.0746 c 0.8971,0 1.4159,0.4756 1.4159,1.6449 0,1.0738 -0.43,1.7039 -1.6126,1.7039 h -0.8779 z m 0.8674,4.8033 c 1.1199,0 1.4091,0.4464 1.4091,1.343 0,0.9099 -0.4592,1.3295 -1.3468,1.3295 h -0.9297 V 40.811 Z m -2.6286,4.1536 h 3.062 c 1.7439,0 2.7023,-1.0007 2.7023,-2.6405 0,-1.3127 -0.6044,-1.95 -1.1611,-2.1654 0.7112,-0.3039 1.451,-0.9768 1.451,-2.5427 0,-1.9783 -1.2421,-3.0628 -3.0294,-3.0628 h -3.0248 z" /><path
         id="path120"
         style="fill:#ffffff;fill-opacity:1;fill-rule:nonzero;stroke:none"
         d="m 259.3485,38.7916 c -0.3753,1.9936 -0.6749,3.4489 -0.8331,4.4433 h -0.0439 c -0.1216,-0.9579 -0.4394,-2.5229 -0.809,-4.4433 z m 2.0971,8.7281 -2.0874,-1.8547 h -1.6974 l 1.6421,1.8547 z m -4.1023,-10.3464 -0.4992,-2.6201 h -1.8017 l 2.3267,10.4105 h 2.3343 l 2.3534,-10.4105 h -1.8879 l -0.5009,2.6201 z" /><g
         id="g122"><g
           clip-path="url(#clipPath128)"
           id="g124"><path
             id="path136"
             style="fill:url(#linearGradient134);fill-rule:evenodd;stroke:none"
             d="m 99.6151,45.2571 5.438,-31.1686 c 7.6927,1.9301 14.8867,5.5083 21.5677,10.7368 L 106.9333,48.926 c -2.3233,-1.6041 -4.7636,-2.825 -7.3182,-3.6689" /></g></g><g
         id="g138"><g
           clip-path="url(#clipPath144)"
           id="g140"><path
             id="path152"
             style="fill:url(#linearGradient150);fill-rule:evenodd;stroke:none"
             d="m 73.5676,14.7923 c 3.7604,-1.0729 7.704,-1.7903 11.8235,-2.1467 4.1301,-0.3574 8.1403,-0.3288 12.0303,0.0899 l -5.4346,31.1491 c -1.3277,-0.0562 -2.6838,-0.0241 -4.0669,0.0952 -1.3838,0.1188 -2.7246,0.32 -4.0266,0.5998 z" /></g></g><g
         id="g154"><g
           clip-path="url(#clipPath160)"
           id="g156"><path
             id="path168"
             style="fill:url(#linearGradient166);fill-rule:evenodd;stroke:none"
             d="M 46.6971,31.7112 C 52.4475,25.4177 58.9691,20.658 66.2587,17.4348 l 10.3261,29.7944 c -2.3905,1.2671 -4.6041,2.889 -6.6425,4.8685 z" /></g></g><g
         id="g170"><g
           clip-path="url(#clipPath176)"
           id="g172"><path
             id="path184"
             style="fill:url(#linearGradient182);fill-rule:evenodd;stroke:none"
             d="M 51.1957,123.2921 C 38.4035,112.0731 31.3251,97.7967 29.9662,80.4912 28.6999,64.5364 32.6191,50.3232 41.6985,37.8354 l 23.2523,20.3925 c -3.7208,5.8328 -5.2903,12.3862 -4.7299,19.6574 0.6647,8.6542 4.1947,15.7853 10.59,21.395 6.3833,5.5985 13.7534,8.0261 22.1317,7.3049 7.0393,-0.6049 13.0247,-3.2893 17.9626,-8.0523 l 23.2662,20.4066 c -10.3906,11.3394 -23.3005,17.6649 -38.7133,18.9935 -1.906,0.163 -3.7908,0.2452 -5.6475,0.2452 -14.4215,0.003 -27.2959,-4.9567 -38.6149,-14.8861" /></g></g><g
         id="g186"><g
           clip-path="url(#clipPath192)"
           id="g188"><path
             id="path200"
             style="fill:url(#linearGradient198);fill-rule:evenodd;stroke:none"
             d="m 78.2147,88.6034 c -6.9341,-7.1411 -6.9704,-18.7538 -0.0785,-25.9385 6.8941,-7.1863 18.1,-7.2218 25.0355,-0.081 6.9359,7.1419 6.9696,18.752 0.076,25.9392 -3.46,3.6057 -8.0079,5.4111 -12.5558,5.4111 -4.5107,9e-4 -9.0224,-1.7742 -12.4772,-5.3308" /></g></g><path
         id="path202"
         style="fill:#ffffff;fill-opacity:1;fill-rule:nonzero;stroke:none"
         d="m 336.7976,135.3277 c 0.5695,0.4796 0.8546,1.1582 0.8546,2.0375 0,0.8575 -0.2851,1.5219 -0.8546,1.9919 -0.5718,0.4686 -1.3694,0.7036 -2.3947,0.7036 h -2.9594 v -5.4516 h 2.9594 c 1.0253,0 1.8229,0.2395 2.3947,0.7186 z m 1.6537,-0.3141 c -0.4552,-0.6494 -1.0979,-1.1242 -1.9298,-1.423 l 2.7272,-4.3143 h -1.567 l -2.5245,4.0439 c -0.1551,-0.0199 -0.3779,-0.0295 -0.6673,-0.0295 h -3.0189 v -4.0144 h -1.508 v 12.1025 h 4.5269 c 1.4312,0 2.5631,-0.36 3.3948,-1.0783 0.8316,-0.7186 1.2481,-1.6982 1.2481,-2.9353 0,-0.9192 -0.2277,-1.7036 -0.6815,-2.3516 z m 0.1304,-7.8786 c 1.3921,0.8481 2.4948,1.9967 3.308,3.4441 0.813,1.4485 1.2189,3.0509 1.2189,4.8087 0,1.7566 -0.3968,3.3497 -1.1894,4.7775 -0.7948,1.4275 -1.8822,2.5563 -3.2652,3.3854 -1.3828,0.8289 -2.9359,1.2427 -4.6585,1.2427 -1.7223,0 -3.2831,-0.4187 -4.6862,-1.2577 -1.4034,-0.8391 -2.5061,-1.9817 -3.308,-3.4302 -0.8022,-1.448 -1.2036,-3.0405 -1.2036,-4.7778 0,-1.7371 0.4014,-3.3302 1.2036,-4.7775 0.8019,-1.4491 1.9014,-2.592 3.2938,-3.4305 1.3924,-0.8385 2.9412,-1.258 4.6435,-1.258 1.7016,0 3.2504,0.4243 4.6431,1.2733 z m 0.6242,17.3894 c 1.5562,-0.9184 2.7799,-2.1824 3.6703,-3.7899 0.8889,-1.6075 1.3351,-3.39 1.3351,-5.3467 0,-1.9579 -0.4555,-3.75 -1.3646,-5.3776 -0.9091,-1.6274 -2.1467,-2.9106 -3.7139,-3.8492 -1.5673,-0.9388 -3.2987,-1.4074 -5.1942,-1.4074 -1.8959,0 -3.6227,0.4686 -5.1809,1.4074 -1.5563,0.9386 -2.7842,2.217 -3.6842,3.835 -0.9,1.6169 -1.3507,3.3948 -1.3507,5.3317 0,1.9369 0.4507,3.7145 1.3507,5.3325 0.9,1.6169 2.1325,2.8953 3.6998,3.8344 1.5658,0.9389 3.308,1.4077 5.2222,1.4077 1.916,0 3.6522,-0.4595 5.2104,-1.3779" /></g></g></svg>